<svg width="6" height="6" viewBox="0 0 6 6" fill="none" xmlns="http://www.w3.org/2000/svg">
<g opacity="0.4" clip-path="url(#clip0_307_1293)">
<path fill-rule="evenodd" clip-rule="evenodd" d="M2.99998 2.06224C2.34414 2.06224 1.81248 2.5939 1.81248 3.24974C1.81248 3.90558 2.34414 4.43724 2.99998 4.43724C3.65582 4.43724 4.18748 3.90558 4.18748 3.24974C4.18748 2.5939 3.65582 2.06224 2.99998 2.06224ZM2.18748 3.24974C2.18748 2.80101 2.55125 2.43724 2.99998 2.43724C3.44871 2.43724 3.81248 2.80101 3.81248 3.24974C3.81248 3.69847 3.44871 4.06224 2.99998 4.06224C2.55125 4.06224 2.18748 3.69847 2.18748 3.24974Z" fill="black"/>
<path fill-rule="evenodd" clip-rule="evenodd" d="M3.91251 0.560014C3.39209 0.0974198 2.60786 0.0974197 2.08744 0.560013L2.0335 0.607959C1.88546 0.73955 1.69428 0.812237 1.49621 0.812237C0.842453 0.812237 0.312478 1.34221 0.312478 1.99597V3.26105C0.312476 3.72018 0.312474 4.08008 0.34341 4.36562C0.374979 4.657 0.440559 4.8931 0.587016 5.09468C0.67568 5.21671 0.783 5.32403 0.905036 5.4127C1.10662 5.55916 1.34271 5.62474 1.6341 5.6563C1.91963 5.68724 2.27952 5.68724 2.73864 5.68724H3.2613C3.72042 5.68724 4.08033 5.68724 4.36586 5.6563C4.65724 5.62474 4.89334 5.55916 5.09492 5.4127C5.21695 5.32403 5.32427 5.21671 5.41294 5.09468C5.5594 4.8931 5.62498 4.657 5.65655 4.36562C5.68748 4.08009 5.68748 3.7202 5.68748 3.26107V1.99597C5.68748 1.34221 5.1575 0.812237 4.50374 0.812237C4.30567 0.812237 4.11449 0.73955 3.96645 0.607959L3.91251 0.560014ZM2.33658 0.840292C2.71491 0.503994 3.28504 0.503994 3.66338 0.840292L3.71731 0.888237C3.934 1.08085 4.21383 1.18724 4.50374 1.18724C4.9504 1.18724 5.31248 1.54932 5.31248 1.99597V3.24974C5.31248 3.72263 5.31222 4.06224 5.28373 4.32523C5.25561 4.5847 5.20183 4.74726 5.10956 4.87426C5.04402 4.96446 4.9647 5.04378 4.8745 5.10932C4.7475 5.20159 4.58494 5.25537 4.32547 5.28349C4.06248 5.31198 3.72287 5.31224 3.24998 5.31224H2.74998C2.27708 5.31224 1.93748 5.31198 1.67449 5.28349C1.41501 5.25537 1.25246 5.20159 1.12546 5.10932C1.03526 5.04378 0.955932 4.96446 0.890397 4.87426C0.798126 4.74726 0.744341 4.5847 0.716228 4.32523C0.687735 4.06224 0.687478 3.72263 0.687478 3.24974V1.99597C0.687478 1.54932 1.04956 1.18724 1.49621 1.18724C1.78612 1.18724 2.06596 1.08085 2.28264 0.888237L2.33658 0.840292Z" fill="black"/>
<path d="M4.24998 1.99975C4.24998 2.13782 4.36191 2.24975 4.49998 2.24975C4.63805 2.24975 4.74998 2.13782 4.74998 1.99975C4.74998 1.86168 4.63805 1.74975 4.49998 1.74975C4.36191 1.74975 4.24998 1.86168 4.24998 1.99975Z" fill="black"/>
</g>
<defs>
<clipPath id="clip0_307_1293">
<rect width="5.5" height="5.5" fill="white" transform="scale(1.09091)"/>
</clipPath>
</defs>
</svg>
