<svg width="17" height="16" viewBox="0 0 17 16" fill="none" xmlns="http://www.w3.org/2000/svg">
<path d="M6.90085 1.04129C7.35174 -0.346396 9.31495 -0.346396 9.76584 1.04129L10.7005 3.9179C10.9021 4.53849 11.4805 4.95867 12.133 4.95867H15.1576C16.6167 4.95867 17.2234 6.82579 16.043 7.68343L13.596 9.46127C13.0681 9.84482 12.8472 10.5247 13.0488 11.1453L13.9835 14.0219C14.4344 15.4096 12.8461 16.5635 11.6657 15.7059L9.21867 13.928C8.69077 13.5445 7.97592 13.5445 7.44802 13.928L5.00103 15.7059C3.82059 16.5635 2.23232 15.4096 2.68321 14.0219L3.61787 11.1453C3.81952 10.5247 3.59862 9.84482 3.07071 9.46127L0.623721 7.68343C-0.556717 6.82579 0.0499473 4.95867 1.50905 4.95867H4.53369C5.18623 4.95867 5.76454 4.53849 5.96619 3.9179L6.90085 1.04129Z" fill="#FFE600"/>
</svg>
