<svg width="20" height="18" viewBox="0 0 20 18" fill="none" xmlns="http://www.w3.org/2000/svg">
<rect opacity="0.5" width="20" height="17.1429" rx="2.14286" fill="#1877F2"/>
<path d="M10 12.8572H14.8214" stroke="#FAFAFA" stroke-width="1.07143" stroke-linecap="round" stroke-linejoin="round"/>
<path d="M12.4109 4.01791C12.624 3.80479 12.913 3.68506 13.2144 3.68506C13.3637 3.68506 13.5114 3.71445 13.6493 3.77156C13.7872 3.82867 13.9125 3.91238 14.018 4.01791C14.1235 4.12344 14.2072 4.24871 14.2643 4.38659C14.3215 4.52447 14.3508 4.67224 14.3508 4.82148C14.3508 4.97072 14.3215 5.11849 14.2643 5.25637C14.2072 5.39425 14.1235 5.51953 14.018 5.62505L7.32157 12.3215L5.17871 12.8572L5.71443 10.7143L12.4109 4.01791Z" stroke="#FAFAFA" stroke-width="1.07143" stroke-linecap="round" stroke-linejoin="round"/>
</svg>
