<svg width="24" height="24" viewBox="0 0 24 24" fill="none" xmlns="http://www.w3.org/2000/svg">
<g opacity="0.3">
<path d="M18.2395 8.97519L17.2956 9.08232V9.08232L18.2395 8.97519ZM18.6867 12.9153L19.6307 12.8081V12.8081L18.6867 12.9153ZM5.31328 12.9153L4.36934 12.8081H4.36934L5.31328 12.9153ZM5.76046 8.97519L6.7044 9.08232L5.76046 8.97519ZM4.44779 14.8721L3.72438 14.2563H3.72438L4.44779 14.8721ZM19.5522 14.8721L18.8288 15.4879L18.8288 15.4879L19.5522 14.8721ZM14.2699 4.37366H13.3199C13.3199 4.77973 13.578 5.1409 13.9622 5.27244L14.2699 4.37366ZM9.73005 4.37366L10.0378 5.27244C10.422 5.1409 10.6801 4.77973 10.6801 4.37366H9.73005ZM15.8896 20.3334C16.0737 19.8421 15.8247 19.2945 15.3334 19.1104C14.8421 18.9263 14.2945 19.1753 14.1104 19.6666L15.8896 20.3334ZM9.88958 19.6666C9.70545 19.1753 9.15791 18.9263 8.66661 19.1104C8.17531 19.2945 7.92629 19.8421 8.11042 20.3334L9.88958 19.6666ZM17.7772 17.05H6.22281V18.95H17.7772V17.05ZM17.2956 9.08232L17.7428 13.0224L19.6307 12.8081L19.1835 8.86805L17.2956 9.08232ZM6.25722 13.0224L6.7044 9.08232L4.81652 8.86805L4.36934 12.8081L6.25722 13.0224ZM5.17119 15.4879C5.77295 14.781 6.15429 13.9292 6.25722 13.0224L4.36934 12.8081C4.31118 13.3205 4.09394 13.8222 3.72438 14.2563L5.17119 15.4879ZM17.7428 13.0224C17.8457 13.9292 18.2271 14.781 18.8288 15.4879L20.2756 14.2563C19.9061 13.8222 19.6888 13.3205 19.6307 12.8081L17.7428 13.0224ZM6.22281 17.05C5.63688 17.05 5.24144 16.7623 5.0645 16.4505C4.89694 16.1552 4.89723 15.8097 5.17119 15.4879L3.72438 14.2563C2.90131 15.2233 2.87493 16.4417 3.41204 17.3882C3.93978 18.3182 4.98037 18.95 6.22281 18.95V17.05ZM17.7772 18.95C19.0196 18.95 20.0602 18.3182 20.588 17.3882C21.1251 16.4417 21.0987 15.2233 20.2756 14.2563L18.8288 15.4879C19.1028 15.8097 19.1031 16.1552 18.9355 16.4505C18.7586 16.7623 18.3631 17.05 17.7772 17.05V18.95ZM15.2199 4.37366V4.26995H13.3199V4.37366H15.2199ZM19.1835 8.86805C18.8941 6.31816 17.0054 4.30611 14.5777 3.47488L13.9622 5.27244C15.8193 5.90827 17.1027 7.38311 17.2956 9.08232L19.1835 8.86805ZM10.6801 4.37366V4.26995H8.78005V4.37366H10.6801ZM6.7044 9.08232C6.89726 7.38311 8.18073 5.90827 10.0378 5.27244L9.42232 3.47488C6.99459 4.30611 5.10593 6.31816 4.81652 8.86805L6.7044 9.08232ZM12 2.95C12.729 2.95 13.3199 3.54096 13.3199 4.26995H15.2199C15.2199 2.49162 13.7783 1.05 12 1.05V2.95ZM12 1.05C10.2217 1.05 8.78005 2.49162 8.78005 4.26995H10.6801C10.6801 3.54096 11.271 2.95 12 2.95V1.05ZM14.1104 19.6666C13.8181 20.4466 13.0045 21.05 12 21.05V22.95C13.7656 22.95 15.3085 21.8838 15.8896 20.3334L14.1104 19.6666ZM12 21.05C10.9955 21.05 10.1819 20.4466 9.88958 19.6666L8.11042 20.3334C8.69147 21.8838 10.2344 22.95 12 22.95V21.05Z" fill="black"/>
</g>
</svg>
