<svg width="18" height="18" viewBox="0 0 18 18" fill="none" xmlns="http://www.w3.org/2000/svg">
<path d="M9.87868 2.25H6.75C5.33579 2.25 4.62868 2.25 4.18934 2.68934C3.75 3.12868 3.75 3.83579 3.75 5.25V12.75C3.75 14.1642 3.75 14.8713 4.18934 15.3107C4.62868 15.75 5.33579 15.75 6.75 15.75H11.25C12.6642 15.75 13.3713 15.75 13.8107 15.3107C14.25 14.8713 14.25 14.1642 14.25 12.75V6.62132C14.25 6.31476 14.25 6.16148 14.1929 6.02365C14.1358 5.88582 14.0274 5.77743 13.8107 5.56066L10.9393 2.68934C10.7226 2.47257 10.6142 2.36418 10.4764 2.30709C10.3385 2.25 10.1852 2.25 9.87868 2.25Z" stroke="#7D45F5"/>
<path d="M10.3915 10.5606L8.00453 9.53761C7.41065 9.28309 6.75 9.71871 6.75 10.3648V12.1351C6.75 12.7812 7.41065 13.2168 8.00453 12.9623L10.3915 11.9393C10.9976 11.6796 10.9976 10.8203 10.3915 10.5606Z" stroke="#7D45F5" stroke-linecap="round" stroke-linejoin="round"/>
<path d="M9.75 2.25V5.25C9.75 5.95711 9.75 6.31066 9.96967 6.53033C10.1893 6.75 10.5429 6.75 11.25 6.75H14.25" stroke="#7D45F5"/>
</svg>
