<svg width="16" height="16" viewBox="0 0 16 16" fill="none" xmlns="http://www.w3.org/2000/svg">
<g clip-path="url(#clip0_103_317)">
<path d="M14.6666 9.3335L12.7072 7.92277C11.6891 7.18972 10.2977 7.26548 9.3652 8.10475L6.63464 10.5622C5.70213 11.4015 4.31072 11.4773 3.29259 10.7442L1.33325 9.3335M3.99992 14.6668H11.9999C13.4727 14.6668 14.6666 13.4729 14.6666 12.0002V4.00016C14.6666 2.5274 13.4727 1.3335 11.9999 1.3335H3.99992C2.52716 1.3335 1.33325 2.5274 1.33325 4.00016V12.0002C1.33325 13.4729 2.52716 14.6668 3.99992 14.6668ZM7.33325 5.66683C7.33325 6.5873 6.58706 7.3335 5.66659 7.3335C4.74611 7.3335 3.99992 6.5873 3.99992 5.66683C3.99992 4.74635 4.74611 4.00016 5.66659 4.00016C6.58706 4.00016 7.33325 4.74635 7.33325 5.66683Z" stroke="#7D45F5" stroke-linecap="round"/>
</g>
<defs>
<clipPath id="clip0_103_317">
<rect width="16" height="16" fill="white"/>
</clipPath>
</defs>
</svg>
