<svg width="34" height="34" viewBox="0 0 34 34" fill="none" xmlns="http://www.w3.org/2000/svg">
<g clip-path="url(#clip0_229_3283)">
<path fill-rule="evenodd" clip-rule="evenodd" d="M25.0389 6.44023C24.8016 6.19645 24.4516 6.09761 24.1209 6.18092L5.60337 10.8449C5.23683 10.9372 4.95906 11.2363 4.89497 11.6076C4.83088 11.979 4.99253 12.3527 5.30724 12.5607L11.4734 16.6363C11.8001 16.8523 12.2263 16.8468 12.5481 16.6225L18.6201 12.3899C18.6909 12.3407 18.7293 12.344 18.7463 12.3462C18.7761 12.3501 18.8219 12.3682 18.8652 12.4119C18.9086 12.4555 18.9262 12.5014 18.9298 12.5311C18.9319 12.5481 18.9347 12.5865 18.8846 12.6564L14.5466 18.7018C14.3231 19.0134 14.3083 19.4279 14.5091 19.7537L18.3052 25.9126C18.5033 26.2339 18.8734 26.4079 19.2486 26.356C19.6237 26.304 19.933 26.0359 20.0369 25.6728L25.2712 7.36276C25.3647 7.03567 25.2762 6.68401 25.0389 6.44023Z" fill="#7D45F5"/>
</g>
<defs>
<clipPath id="clip0_229_3283">
<rect width="28" height="28" fill="white" transform="translate(0 6.84064) scale(1.00026) rotate(-14.1368)"/>
</clipPath>
</defs>
</svg>
