<svg width="3" height="3" viewBox="0 0 3 3" fill="none" xmlns="http://www.w3.org/2000/svg">
<g opacity="0.6" clip-path="url(#clip0_307_1368)">
<path d="M2.19154 1.31521C2.22799 1.27844 2.22772 1.21908 2.19095 1.18263C2.15417 1.14618 2.09481 1.14645 2.05836 1.18322L1.83995 1.4036C1.75131 1.49303 1.6903 1.55438 1.63861 1.59589C1.5884 1.63622 1.55615 1.65005 1.52726 1.65373C1.50913 1.65605 1.49078 1.65605 1.47264 1.65373C1.44375 1.65005 1.4115 1.63622 1.36129 1.59589C1.3096 1.55438 1.24859 1.49303 1.15995 1.4036L0.941538 1.18322C0.90509 1.14645 0.845731 1.14618 0.808956 1.18263C0.772182 1.21908 0.771917 1.27844 0.808365 1.31521L1.03071 1.53955C1.11446 1.62405 1.1829 1.69311 1.24388 1.74209C1.3073 1.79302 1.37167 1.82988 1.44893 1.83973C1.48281 1.84405 1.51709 1.84405 1.55097 1.83973C1.62824 1.82988 1.6926 1.79302 1.75602 1.74209C1.817 1.69311 1.88545 1.62405 1.96919 1.53956L2.19154 1.31521Z" fill="black"/>
</g>
<defs>
<clipPath id="clip0_307_1368">
<rect width="2.5" height="2.5" fill="white" transform="scale(1.2)"/>
</clipPath>
</defs>
</svg>
