<svg width="5" height="5" viewBox="0 0 5 5" fill="none" xmlns="http://www.w3.org/2000/svg">
<g opacity="0.7" clip-path="url(#clip0_307_1350)">
<path d="M3.95771 3.96846C4.01081 3.96852 4.06189 3.98885 4.1005 4.0253C4.13911 4.06175 4.16235 4.11157 4.16546 4.16458C4.16857 4.21759 4.15132 4.26979 4.11724 4.31051C4.08316 4.35123 4.03482 4.3774 3.98209 4.38367L3.95771 4.38513H2.49938C2.44628 4.38507 2.39521 4.36473 2.3566 4.32828C2.31798 4.29183 2.29475 4.24201 2.29164 4.189C2.28852 4.13599 2.30577 4.0838 2.33985 4.04308C2.37393 4.00236 2.42228 3.97619 2.47501 3.96992L2.49938 3.96846H3.95771ZM3.35271 0.920126C3.44812 0.824772 3.57681 0.770154 3.71168 0.767768C3.84655 0.765383 3.97708 0.815416 4.07581 0.907336C4.17453 0.999256 4.23374 1.12589 4.24097 1.26059C4.24821 1.39529 4.2029 1.52754 4.11459 1.6295L4.08917 1.65658L1.81917 3.92679C1.79933 3.94665 1.77691 3.96375 1.75251 3.97763L1.72751 3.99013L0.935006 4.35054C0.766673 4.427 0.593756 4.26367 0.650631 4.09533L0.658964 4.0745L1.01938 3.28179C1.03093 3.2563 1.04586 3.23248 1.06376 3.21096L1.08251 3.19013L3.35271 0.920126Z" fill="#212427"/>
</g>
<defs>
<clipPath id="clip0_307_1350">
<rect width="4.5" height="4.5" fill="white" transform="scale(1.11111)"/>
</clipPath>
</defs>
</svg>
