<svg width="12" height="11" viewBox="0 0 12 11" fill="none" xmlns="http://www.w3.org/2000/svg">
<path d="M4.74424 0.715231C5.05421 -0.238772 6.40387 -0.23877 6.71384 0.715232L7.35641 2.69283C7.49503 3.11948 7.89261 3.40833 8.34121 3.40833H10.4206C11.4237 3.40833 11.8407 4.69194 11.0292 5.28154L9.34698 6.50377C8.98405 6.76745 8.83219 7.23483 8.97081 7.66147L9.61337 9.63907C9.92335 10.5931 8.83145 11.3864 8.01993 10.7968L6.33768 9.57456C5.97476 9.31088 5.48332 9.31088 5.1204 9.57456L3.43815 10.7968C2.62663 11.3864 1.53473 10.5931 1.84471 9.63907L2.48727 7.66147C2.62589 7.23483 2.47403 6.76745 2.1111 6.50377L0.428856 5.28154C-0.382667 4.69194 0.0344018 3.40833 1.0375 3.40833H3.11687C3.56547 3.40833 3.96305 3.11948 4.10167 2.69283L4.74424 0.715231Z" fill="#FFE600"/>
</svg>
