<svg width="23" height="20" viewBox="0 0 23 20" fill="none" xmlns="http://www.w3.org/2000/svg">
<path d="M20.2 3.06664H16.9079L16.5246 1.91665C16.3398 1.35827 15.9836 0.872412 15.5066 0.528277C15.0297 0.184142 14.4563 -0.000725239 13.8681 2.13824e-06H9.13169C8.54369 -0.000447165 7.97053 0.18454 7.49373 0.528647C7.01694 0.872754 6.6608 1.35846 6.47598 1.91665L6.09188 3.06664H2.79984C2.05753 3.06746 1.34585 3.3627 0.820952 3.8876C0.296055 4.41249 0.000811718 5.12417 0 5.86649V17.1364C0.00162272 17.8782 0.297224 18.5891 0.822033 19.1133C1.34684 19.6375 2.05806 19.9324 2.79984 19.9332H20.203C20.9448 19.9316 21.6557 19.636 22.1799 19.1111C22.7042 18.5863 22.999 17.8751 22.9998 17.1333V5.86342C22.9982 5.12164 22.7026 4.41074 22.1778 3.88651C21.653 3.36228 20.9418 3.06745 20.2 3.06664ZM21.4665 17.1333C21.4661 17.4691 21.3325 17.791 21.0951 18.0285C20.8577 18.2659 20.5358 18.3994 20.2 18.3999H2.79984C2.46407 18.3994 2.14216 18.2659 1.90473 18.0285C1.66729 17.791 1.53373 17.4691 1.53332 17.1333V5.86342C1.53454 5.52818 1.66846 5.20705 1.90581 4.97028C2.14315 4.73351 2.4646 4.60037 2.79984 4.59997H6.64465C6.80549 4.59984 6.96222 4.54914 7.09265 4.45503C7.22308 4.36092 7.32062 4.22817 7.37144 4.07557L7.93034 2.39888C8.01426 2.14669 8.17549 1.92734 8.39114 1.77197C8.60679 1.61659 8.8659 1.5331 9.13169 1.53332H13.8681C14.134 1.53303 14.3933 1.6166 14.609 1.77213C14.8246 1.92767 14.9858 2.14725 15.0695 2.39965L15.6284 4.07557C15.6792 4.22817 15.7767 4.36092 15.9072 4.45503C16.0376 4.54914 16.1943 4.59984 16.3552 4.59997H20.2C20.5358 4.60037 20.8577 4.73394 21.0951 4.97137C21.3325 5.2088 21.4661 5.53071 21.4665 5.86649V17.1333Z" fill="white"/>
<path d="M11.5 5.3662C10.3627 5.3662 9.25103 5.70343 8.30545 6.33524C7.35988 6.96705 6.62289 7.86507 6.18769 8.91574C5.75249 9.96641 5.63862 11.1225 5.86049 12.2379C6.08235 13.3533 6.62998 14.3778 7.43413 15.182C8.23827 15.9861 9.26281 16.5338 10.3782 16.7556C11.4936 16.9775 12.6497 16.8636 13.7004 16.4284C14.751 15.9932 15.6491 15.2562 16.2809 14.3107C16.9127 13.3651 17.2499 12.2534 17.2499 11.1162C17.2483 9.59167 16.642 8.13009 15.564 7.05211C14.486 5.97414 13.0244 5.36782 11.5 5.3662ZM11.5 15.3328C10.666 15.3328 9.85074 15.0855 9.15732 14.6222C8.4639 14.1588 7.92344 13.5003 7.6043 12.7298C7.28515 11.9593 7.20165 11.1115 7.36435 10.2935C7.52705 9.47558 7.92864 8.72425 8.51835 8.13454C9.10805 7.54484 9.85939 7.14324 10.6773 6.98054C11.4953 6.81784 12.3431 6.90134 13.1136 7.22049C13.8841 7.53964 14.5426 8.0801 15.006 8.77352C15.4693 9.46694 15.7166 10.2822 15.7166 11.1162C15.7154 12.2341 15.2707 13.3059 14.4802 14.0964C13.6897 14.8869 12.6179 15.3316 11.5 15.3328Z" fill="white"/>
<path d="M19.1666 7.66612C19.59 7.66612 19.9332 7.32287 19.9332 6.89946C19.9332 6.47604 19.59 6.1328 19.1666 6.1328C18.7431 6.1328 18.3999 6.47604 18.3999 6.89946C18.3999 7.32287 18.7431 7.66612 19.1666 7.66612Z" fill="white"/>
</svg>
