<svg width="36" height="33" viewBox="0 0 36 33" fill="none" xmlns="http://www.w3.org/2000/svg">
<path d="M2.35137 27.5068C2.17118 27.9265 2.23429 28.4111 2.51598 28.7707C2.79766 29.1303 3.25307 29.3076 3.70374 29.2332L10.9453 28.0368C17.627 30.4185 25.9288 29.1532 30.5561 24.7934C32.9471 22.5406 34.0382 19.746 33.6853 16.9493C33.3345 14.1701 31.586 11.6055 28.7327 9.71531L28.7325 9.71519C23.0897 5.97853 14.4382 5.7207 8.3705 9.06247L8.37032 9.06257C5.30658 10.7506 3.2513 13.1669 2.54198 15.8875C1.88487 18.4078 2.42582 21.0343 4.14683 23.3245L2.35137 27.5068Z" stroke="#C1C1CF" stroke-width="2.5" stroke-linecap="round" stroke-linejoin="round"/>
<circle cx="7.5" cy="8.5" r="7.5" fill="white"/>
<path d="M6.9375 5.38574C6.2355 5.57774 5.8125 6.11699 5.8125 6.62549C5.8125 7.13399 6.2355 7.67324 6.9375 7.86449V5.38574ZM8.0625 9.13649V11.6145C8.7645 11.4232 9.1875 10.884 9.1875 10.3755C9.1875 9.86699 8.7645 9.32774 8.0625 9.13649Z" fill="#0BE701"/>
<path fill-rule="evenodd" clip-rule="evenodd" d="M15 8.5C15 12.6423 11.6423 16 7.5 16C3.35775 16 0 12.6423 0 8.5C0 4.35775 3.35775 1 7.5 1C11.6423 1 15 4.35775 15 8.5ZM7.5 3.4375C7.64918 3.4375 7.79226 3.49676 7.89775 3.60225C8.00324 3.70774 8.0625 3.85082 8.0625 4V4.23775C9.285 4.45675 10.3125 5.3755 10.3125 6.625C10.3125 6.77418 10.2532 6.91726 10.1477 7.02275C10.0423 7.12824 9.89918 7.1875 9.75 7.1875C9.60082 7.1875 9.45774 7.12824 9.35225 7.02275C9.24676 6.91726 9.1875 6.77418 9.1875 6.625C9.1875 6.1165 8.7645 5.57725 8.0625 5.38525V7.98775C9.285 8.20675 10.3125 9.1255 10.3125 10.375C10.3125 11.6245 9.285 12.5433 8.0625 12.7623V13C8.0625 13.1492 8.00324 13.2923 7.89775 13.3977C7.79226 13.5032 7.64918 13.5625 7.5 13.5625C7.35082 13.5625 7.20774 13.5032 7.10225 13.3977C6.99676 13.2923 6.9375 13.1492 6.9375 13V12.7623C5.715 12.5433 4.6875 11.6245 4.6875 10.375C4.6875 10.2258 4.74676 10.0827 4.85225 9.97725C4.95774 9.87176 5.10082 9.8125 5.25 9.8125C5.39918 9.8125 5.54226 9.87176 5.64775 9.97725C5.75324 10.0827 5.8125 10.2258 5.8125 10.375C5.8125 10.8835 6.2355 11.4228 6.9375 11.614V9.01225C5.715 8.79325 4.6875 7.8745 4.6875 6.625C4.6875 5.3755 5.715 4.45675 6.9375 4.23775V4C6.9375 3.85082 6.99676 3.70774 7.10225 3.60225C7.20774 3.49676 7.35082 3.4375 7.5 3.4375Z" fill="#0BE701"/>
<rect x="22" y="2" width="12" height="12" fill="white"/>
<mask id="mask0_146_360" style="mask-type:luminance" maskUnits="userSpaceOnUse" x="21" y="1" width="14" height="14">
<path d="M33 2H23C22.4477 2 22 2.44772 22 3V13C22 13.5523 22.4477 14 23 14H33C33.5523 14 34 13.5523 34 13V3C34 2.44772 33.5523 2 33 2Z" fill="white" stroke="white" stroke-width="1.33333" stroke-linecap="round" stroke-linejoin="round"/>
<path d="M28.0002 7.33341C28.3538 7.33341 28.6929 7.19294 28.943 6.94289C29.193 6.69284 29.3335 6.3537 29.3335 6.00008C29.3335 5.64646 29.193 5.30732 28.943 5.05727C28.6929 4.80722 28.3538 4.66675 28.0002 4.66675C27.6465 4.66675 27.3074 4.80722 27.0574 5.05727C26.8073 5.30732 26.6668 5.64646 26.6668 6.00008C26.6668 6.3537 26.8073 6.69284 27.0574 6.94289C27.3074 7.19294 27.6465 7.33341 28.0002 7.33341ZM28.0002 11.0001C28.4422 11.0001 28.8661 10.8245 29.1787 10.5119C29.4912 10.1994 29.6668 9.77544 29.6668 9.33341C29.6668 8.89139 29.4912 8.46746 29.1787 8.1549C28.8661 7.84234 28.4422 7.66675 28.0002 7.66675C27.5581 7.66675 27.1342 7.84234 26.8217 8.1549C26.5091 8.46746 26.3335 8.89139 26.3335 9.33341C26.3335 9.77544 26.5091 10.1994 26.8217 10.5119C27.1342 10.8245 27.5581 11.0001 28.0002 11.0001Z" stroke="black" stroke-width="1.33333"/>
</mask>
<g mask="url(#mask0_146_360)">
<path d="M20 4C20 1.79086 21.7909 0 24 0H32C34.2091 0 36 1.79086 36 4V12C36 14.2091 34.2091 16 32 16H24C21.7909 16 20 14.2091 20 12V4Z" fill="#DF5CFF"/>
</g>
</svg>
