<svg width="111" height="106" viewBox="0 0 111 106" fill="none" xmlns="http://www.w3.org/2000/svg">
<g clip-path="url(#clip0_1_13)">
<path d="M52.3761 92.682L28.4878 105.217C23.556 107.804 17.7999 103.626 18.7437 98.1472L23.3034 71.604C23.6756 69.4286 22.9578 67.2134 21.3758 65.6746L2.03393 46.865C-1.9541 42.9916 0.252611 36.2265 5.75608 35.4306L32.4758 31.5573C34.6693 31.2389 36.5569 29.8726 37.5406 27.8961L49.4781 3.74071C51.9374 -1.2469 59.0627 -1.2469 61.5219 3.74071L73.4727 27.8961C74.4564 29.8726 76.3441 31.2522 78.5375 31.5573L105.257 35.4306C110.774 36.2265 112.967 42.9916 108.979 46.865L89.6508 65.6614C88.0689 67.2001 87.3511 69.4153 87.7233 71.5908L92.2829 98.1339C93.2267 103.612 87.4574 107.791 82.5388 105.204L58.6506 92.6687C56.6964 91.6473 54.3568 91.6473 52.4027 92.6687L52.3761 92.682Z" fill="white"/>
<path d="M55.5 27.6706V57.8749" stroke="#7D45F5" stroke-width="2.5" stroke-miterlimit="10"/>
<path d="M84.3068 48.5363L55.5 57.8749" stroke="#7D45F5" stroke-width="2.5" stroke-miterlimit="10"/>
<path d="M73.2999 82.3221L55.5 57.8749" stroke="#7D45F5" stroke-width="2.5" stroke-miterlimit="10"/>
<path d="M37.7001 82.3221L55.5 57.8749" stroke="#7D45F5" stroke-width="2.5" stroke-miterlimit="10"/>
<path d="M26.6932 48.5363L55.5 57.8749" stroke="#7D45F5" stroke-width="2.5" stroke-miterlimit="10"/>
<path d="M59.1874 27.6706C59.1874 29.7012 57.5375 31.3491 55.5 31.3491C53.4625 31.3491 51.8126 29.7012 51.8126 27.6706C51.8126 25.6401 53.4625 23.9922 55.5 23.9922C57.5375 23.9922 59.1874 25.6401 59.1874 27.6706Z" fill="#7D45F5" stroke="#7D45F5"/>
<path d="M87.9942 48.5363C87.9942 50.5669 86.3443 52.2148 84.3068 52.2148C82.2693 52.2148 80.6194 50.5669 80.6194 48.5363C80.6194 46.5058 82.2693 44.8579 84.3068 44.8579C86.3443 44.8579 87.9942 46.5058 87.9942 48.5363Z" fill="#7D45F5" stroke="#7D45F5"/>
<path d="M76.9873 82.3221C76.9873 84.3527 75.3374 86.0006 73.2999 86.0006C71.2624 86.0006 69.6125 84.3527 69.6125 82.3221C69.6125 80.2916 71.2624 78.6437 73.2999 78.6437C75.3374 78.6437 76.9873 80.2916 76.9873 82.3221Z" fill="#7D45F5" stroke="#7D45F5"/>
<path d="M41.3875 82.3221C41.3875 84.3527 39.7376 86.0006 37.7001 86.0006C35.6626 86.0006 34.0127 84.3527 34.0127 82.3221C34.0127 80.2916 35.6626 78.6437 37.7001 78.6437C39.7376 78.6437 41.3875 80.2916 41.3875 82.3221Z" fill="#7D45F5" stroke="#7D45F5"/>
<path d="M30.3806 48.5363C30.3806 50.5669 28.7307 52.2148 26.6932 52.2148C24.6556 52.2148 23.0057 50.5669 23.0057 48.5363C23.0057 46.5058 24.6556 44.8579 26.6932 44.8579C28.7307 44.8579 30.3806 46.5058 30.3806 48.5363Z" fill="#7D45F5" stroke="#7D45F5"/>
<path d="M62.8298 57.8749C62.8298 61.9127 59.5491 65.1879 55.5 65.1879C51.4508 65.1879 48.1702 61.9127 48.1702 57.8749C48.1702 53.837 51.4508 50.5618 55.5 50.5618C59.5491 50.5618 62.8298 53.837 62.8298 57.8749Z" fill="#7D45F5" stroke="#7D45F5"/>
</g>
<defs>
<clipPath id="clip0_1_13">
<rect width="111" height="106" fill="white"/>
</clipPath>
</defs>
</svg>
