<svg width="22" height="22" viewBox="0 0 22 22" fill="none" xmlns="http://www.w3.org/2000/svg">
<path d="M13.4824 2.80123C14.0458 2.52115 14.708 2.43782 15.3634 2.61344C16.7896 2.99561 17.6361 4.46165 17.2539 5.88793L15.0791 14.0044C14.6969 15.4307 13.2309 16.2771 11.8046 15.8949C10.3783 15.5128 9.53191 14.0467 9.91408 12.6204L10.784 9.37385C10.8823 9.00709 10.6646 8.63011 10.2979 8.53183C9.9311 8.43356 9.55412 8.65121 9.45585 9.01797L8.58593 12.2646C8.00721 14.4244 9.28893 16.6444 11.4487 17.2231C13.6085 17.8018 15.8285 16.5201 16.4072 14.3603L18.582 6.24381C19.1608 4.08401 17.879 1.86401 15.7192 1.28529C14.7279 1.01967 13.7222 1.14647 12.8703 1.56997C12.3479 1.82965 11.8823 2.2013 11.5114 2.6636C11.2739 2.95979 11.3214 3.39249 11.6176 3.63006C11.9137 3.86764 12.3464 3.82012 12.584 3.52394C12.8284 3.21929 13.1362 2.97333 13.4824 2.80123Z" fill="#7D45F5"/>
<path d="M7.53741 8.50392C7.91958 7.07764 9.38562 6.23123 10.8119 6.6134C12.2382 6.99557 13.0846 8.46161 12.7024 9.88789L11.8325 13.1345C11.7342 13.5012 11.9519 13.8782 12.3186 13.9765C12.6854 14.0748 13.0624 13.8571 13.1607 13.4903L14.0306 10.2438C14.6093 8.08397 13.3276 5.86397 11.1678 5.28525C9.00798 4.70653 6.78798 5.98825 6.20926 8.14805L4.03447 16.2645C3.45575 18.4243 4.73747 20.6443 6.89727 21.223C7.8886 21.4887 8.89427 21.3618 9.74619 20.9384C10.2686 20.6787 10.7343 20.307 11.1051 19.8447C11.3427 19.5485 11.2951 19.1158 10.999 18.8783C10.7028 18.6407 10.2701 18.6882 10.0325 18.9844C9.78813 19.289 9.48032 19.535 9.13412 19.7071C8.57071 19.9872 7.90855 20.0705 7.25314 19.8949C5.82686 19.5127 4.98044 18.0467 5.36261 16.6204L7.53741 8.50392Z" fill="#7D45F5"/>
</svg>
