<svg width="18" height="18" viewBox="0 0 18 18" fill="none" xmlns="http://www.w3.org/2000/svg">
<path fill-rule="evenodd" clip-rule="evenodd" d="M9.00006 0C13.9706 0 18.0001 4.02946 18.0001 9.00006C18.0001 13.9706 13.9706 18.0001 9.00006 18.0001C4.02946 18.0001 0 13.9706 0 9.00006C0 4.02946 4.02946 0 9.00006 0ZM9.00034 2.24981C5.27239 2.24981 2.2503 5.27191 2.2503 8.99985C2.2503 12.7278 5.27239 15.7499 9.00034 15.7499C12.7283 15.7499 15.7504 12.7278 15.7504 8.99985C15.7504 5.27191 12.7283 2.24981 9.00034 2.24981ZM11.7214 5.6689L7.52182 9.86851L5.85771 8.20441L5.75173 8.11082C5.3104 7.76766 4.67226 7.79886 4.26671 8.20441C3.82737 8.64375 3.82737 9.35606 4.26671 9.79541L6.72632 12.255L6.8323 12.3486C7.27363 12.6918 7.91177 12.6606 8.31732 12.255L13.3124 7.2599L13.406 7.15391C13.7492 6.71258 13.718 6.07444 13.3124 5.6689C12.8731 5.22955 12.1608 5.22955 11.7214 5.6689Z" fill="#7D45F5"/>
</svg>
