<svg width="22" height="22" viewBox="0 0 22 22" fill="none" xmlns="http://www.w3.org/2000/svg">
<path d="M12.8334 11.0002C12.8334 12.0127 12.0126 12.8335 11.0001 12.8335C9.98756 12.8335 9.16675 12.0127 9.16675 11.0002C9.16675 9.98764 9.98756 9.16683 11.0001 9.16683C12.0126 9.16683 12.8334 9.98764 12.8334 11.0002Z" fill="white"/>
<path d="M12.8334 3.66683C12.8334 4.67935 12.0126 5.50016 11.0001 5.50016C9.98756 5.50016 9.16675 4.67935 9.16675 3.66683C9.16675 2.65431 9.98756 1.8335 11.0001 1.8335C12.0126 1.8335 12.8334 2.65431 12.8334 3.66683Z" fill="white"/>
<path d="M12.8334 18.3335C12.8334 19.346 12.0126 20.1668 11.0001 20.1668C9.98756 20.1668 9.16675 19.346 9.16675 18.3335C9.16675 17.321 9.98756 16.5002 11.0001 16.5002C12.0126 16.5002 12.8334 17.321 12.8334 18.3335Z" fill="white"/>
</svg>
