<svg width="12" height="11" viewBox="0 0 12 11" fill="none" xmlns="http://www.w3.org/2000/svg">
<path d="M4.74445 0.715769C5.05444 -0.238278 6.40416 -0.238276 6.71415 0.715771L7.35674 2.69346C7.49538 3.12013 7.89297 3.409 8.34159 3.409H10.4211C11.4242 3.409 11.8413 4.69266 11.0297 5.28229L9.34741 6.50457C8.98446 6.76826 8.8326 7.23567 8.97123 7.66233L9.61382 9.64002C9.92381 10.5941 8.83186 11.3874 8.0203 10.7978L6.33797 9.5755C5.97503 9.31181 5.48357 9.31181 5.12063 9.5755L3.43831 10.7978C2.62675 11.3874 1.5348 10.5941 1.84479 9.64002L2.48738 7.66233C2.62601 7.23567 2.47414 6.76826 2.1112 6.50457L0.428875 5.28229C-0.382685 4.69266 0.0344034 3.409 1.03755 3.409H3.11701C3.56563 3.409 3.96323 3.12012 4.10186 2.69346L4.74445 0.715769Z" fill="#FFA800"/>
</svg>
