<svg width="12" height="11" viewBox="0 0 12 11" fill="none" xmlns="http://www.w3.org/2000/svg">
<path d="M4.74467 0.715296C5.05468 -0.238794 6.40446 -0.238792 6.71446 0.715298L7.35708 2.69308C7.49572 3.11976 7.89334 3.40865 8.34198 3.40865H10.4215C11.4247 3.40865 11.8418 4.69237 11.0302 5.28203L9.34784 6.50437C8.98488 6.76807 8.833 7.2355 8.97164 7.66218L9.61426 9.63996C9.92426 10.594 8.83226 11.3874 8.02067 10.7978L6.33826 9.57544C5.97531 9.31173 5.48383 9.31173 5.12087 9.57544L3.43847 10.7978C2.62687 11.3874 1.53487 10.594 1.84487 9.63996L2.48749 7.66218C2.62613 7.2355 2.47426 6.76807 2.1113 6.50437L0.428895 5.28203C-0.382703 4.69237 0.034405 3.40865 1.0376 3.40865H3.11716C3.5658 3.40865 3.96341 3.11976 4.10205 2.69308L4.74467 0.715296Z" fill="#FFA800"/>
</svg>
