<svg width="15" height="17" viewBox="0 0 15 17" fill="none" xmlns="http://www.w3.org/2000/svg">
<path d="M14.9278 4.25657C13.9561 4.25657 13.0596 3.93466 12.3396 3.39162C11.5139 2.7691 10.9207 1.85593 10.7112 0.803427C10.6593 0.543378 10.6314 0.275014 10.6287 0H7.85295V7.58467L7.84962 11.7391C7.84962 12.8498 7.12634 13.7916 6.12371 14.1228C5.83274 14.2189 5.51848 14.2645 5.19126 14.2465C4.77358 14.2236 4.38218 14.0976 4.04199 13.894C3.31804 13.4611 2.8272 12.6756 2.8139 11.7771C2.79295 10.3727 3.92826 9.22777 5.33159 9.22777C5.6086 9.22777 5.87464 9.273 6.12371 9.35514V7.28206V6.53683C5.861 6.49792 5.59364 6.47763 5.32328 6.47763C3.78726 6.47763 2.35067 7.11612 1.32377 8.26639C0.547611 9.13566 0.0820485 10.2447 0.0102189 11.4076C-0.0838912 12.9353 0.475116 14.3875 1.55921 15.459C1.7185 15.6163 1.88577 15.7623 2.06069 15.897C2.99015 16.6123 4.12645 17 5.32328 17C5.59364 17 5.861 16.98 6.12371 16.9411C7.24173 16.7755 8.27328 16.2637 9.08735 15.459C10.0876 14.4703 10.6403 13.1578 10.6463 11.7608L10.632 5.55682C11.1092 5.92494 11.631 6.22955 12.191 6.46599C13.0619 6.83345 13.9854 7.01968 14.9358 7.01935V5.0038V4.2559C14.9365 4.25657 14.9285 4.25657 14.9278 4.25657Z" fill="#929195"/>
</svg>
