<svg width="20" height="20" viewBox="0 0 20 20" fill="none" xmlns="http://www.w3.org/2000/svg">
<path d="M18.165 14.1561C15.7759 13.7628 14.7059 11.322 14.6617 11.2178L14.6567 11.2086C14.5888 11.0977 14.546 10.9732 14.5313 10.8439C14.5166 10.7146 14.5304 10.5837 14.5717 10.4603C14.7317 10.082 15.2634 9.91365 15.6142 9.80198C15.7025 9.77448 15.785 9.74781 15.85 9.72198C16.4859 9.47198 16.615 9.21115 16.6117 9.03698C16.595 8.92871 16.5465 8.82785 16.4723 8.74727C16.3981 8.66668 16.3016 8.61001 16.195 8.58448L16.1892 8.58281C16.0949 8.54469 15.9942 8.52517 15.8925 8.52531C15.8028 8.52402 15.7139 8.54192 15.6317 8.57781C15.3835 8.70326 15.1131 8.77858 14.8359 8.79948C14.6758 8.80323 14.5195 8.75074 14.3942 8.65115L14.4209 8.20948L14.4242 8.15531C14.5847 7.03245 14.5167 5.88873 14.2242 4.79281C13.8791 4.00587 13.3099 3.33803 12.5875 2.87267C11.8652 2.4073 11.0217 2.16505 10.1625 2.17615L9.82752 2.18031C8.96983 2.16978 8.12802 2.41209 7.40718 2.87699C6.68633 3.34189 6.11837 4.0088 5.77419 4.79448C5.48129 5.88917 5.4127 7.03177 5.57252 8.15365C5.58363 8.31976 5.59363 8.48587 5.60252 8.65198C5.46434 8.76013 5.29087 8.81301 5.11586 8.80031C4.82138 8.78766 4.53313 8.71147 4.27086 8.57698C4.20662 8.54857 4.13691 8.53463 4.06669 8.53615C3.92192 8.53059 3.77903 8.57042 3.65801 8.65005C3.53698 8.72969 3.44387 8.84516 3.39169 8.98031C3.32336 9.33865 3.83502 9.59948 4.14669 9.72198C4.21336 9.74865 4.29502 9.77448 4.38252 9.80198C4.73419 9.91365 5.26586 10.082 5.42586 10.4603C5.46703 10.5837 5.48075 10.7146 5.46607 10.8439C5.45139 10.9731 5.40866 11.0976 5.34086 11.2086L5.33586 11.2178C5.10569 11.7194 4.80578 12.186 4.44502 12.6036C3.78961 13.4185 2.86235 13.9697 1.83336 14.1561C1.78481 14.1643 1.74096 14.19 1.71021 14.2285C1.67946 14.2669 1.66396 14.3153 1.66669 14.3645C1.66857 14.4018 1.67703 14.4385 1.69169 14.4728C1.83919 14.8153 2.57419 15.0978 3.81919 15.2903C3.93586 15.3086 3.98419 15.4986 4.05252 15.8086C4.07919 15.9336 4.10752 16.0628 4.14669 16.1961C4.1597 16.2552 4.19419 16.3074 4.24345 16.3425C4.29272 16.3776 4.35327 16.3931 4.41336 16.3861C4.53235 16.3797 4.65057 16.3629 4.76669 16.3361C5.07338 16.2692 5.38612 16.2337 5.70002 16.2303C5.92592 16.2307 6.1514 16.2497 6.37419 16.287C6.8442 16.406 7.28139 16.6293 7.65336 16.9403C8.28119 17.4765 9.07021 17.7874 9.89502 17.8236C9.92252 17.8236 9.95086 17.8228 9.97836 17.8203C10.0117 17.822 10.0575 17.8236 10.1042 17.8236C10.9295 17.7874 11.7191 17.4765 12.3475 16.9403C12.7189 16.6294 13.1556 16.4061 13.625 16.287C13.8476 16.2498 14.0727 16.2308 14.2984 16.2303C14.612 16.2319 14.9247 16.2651 15.2317 16.3295C15.3482 16.3548 15.4667 16.3695 15.5859 16.3736H15.6059C15.6621 16.3781 15.7181 16.362 15.7633 16.3283C15.8085 16.2945 15.8399 16.2455 15.8517 16.1903C15.888 16.0632 15.9197 15.9348 15.9467 15.8053C16.0142 15.4961 16.0634 15.307 16.18 15.2886C17.425 15.097 18.1609 14.8136 18.3059 14.4736C18.321 14.4394 18.33 14.4027 18.3325 14.3653C18.3352 14.3162 18.3198 14.2677 18.289 14.2293C18.2583 14.1909 18.2144 14.1651 18.1659 14.157L18.165 14.1561Z" fill="white"/>
</svg>
