<svg width="50" height="50" viewBox="0 0 50 50" fill="none" xmlns="http://www.w3.org/2000/svg">
<path d="M16.6665 23.828C16.0193 23.828 15.4946 24.3526 15.4946 24.9998C15.4946 25.647 16.0193 26.1717 16.6665 26.1717V23.828ZM31.6665 24.9998V23.828V24.9998ZM27.4914 15.8342C27.0318 15.3786 26.2898 15.3819 25.8342 15.8416C25.3786 16.3013 25.3819 17.0432 25.8416 17.4988L27.4914 15.8342ZM29.6048 19.5787L28.7799 20.411L29.6048 19.5787ZM29.6048 30.421L28.7799 29.5887L29.6048 30.421ZM25.8416 32.5008C25.3819 32.9564 25.3786 33.6984 25.8342 34.1581C26.2898 34.6178 27.0318 34.6211 27.4914 34.1655L25.8416 32.5008ZM33.3 24.4776L34.4625 24.3294L34.4625 24.3294L33.3 24.4776ZM33.3 25.5221L34.4625 25.6702L34.4625 25.6702L33.3 25.5221ZM33.3332 24.9998H34.5051H33.3332ZM44.6613 24.9998C44.6613 35.8586 35.8586 44.6613 24.9998 44.6613V47.0051C37.153 47.0051 47.0051 37.153 47.0051 24.9998H44.6613ZM24.9998 44.6613C14.1411 44.6613 5.33838 35.8586 5.33838 24.9998H2.99463C2.99463 37.153 12.8467 47.0051 24.9998 47.0051V44.6613ZM5.33838 24.9998C5.33838 14.1411 14.1411 5.33838 24.9998 5.33838V2.99463C12.8467 2.99463 2.99463 12.8467 2.99463 24.9998H5.33838ZM24.9998 5.33838C35.8586 5.33838 44.6613 14.1411 44.6613 24.9998H47.0051C47.0051 12.8467 37.153 2.99463 24.9998 2.99463V5.33838ZM16.6665 26.1717L31.6665 26.1717V23.828L16.6665 23.828V26.1717ZM25.8416 17.4988L28.7799 20.411L30.4297 18.7464L27.4914 15.8342L25.8416 17.4988ZM28.7799 29.5887L25.8416 32.5008L27.4914 34.1655L30.4297 31.2533L28.7799 29.5887ZM28.7799 20.411C29.971 21.5916 30.7928 22.4086 31.3498 23.1021C31.8918 23.7771 32.0859 24.2205 32.1376 24.6258L34.4625 24.3294C34.3338 23.3194 33.8518 22.4746 33.1772 21.6345C32.5174 20.813 31.5818 19.8882 30.4297 18.7464L28.7799 20.411ZM30.4297 31.2533C31.5818 30.1115 32.5174 29.1867 33.1772 28.3652C33.8518 27.5251 34.3338 26.6803 34.4625 25.6702L32.1376 25.3739C32.0859 25.7792 31.8918 26.2226 31.3498 26.8976C30.7928 27.5911 29.971 28.4081 28.7799 29.5887L30.4297 31.2533ZM32.1376 24.6258C32.1534 24.75 32.1613 24.8749 32.1613 24.9998L34.5051 24.9998C34.505 24.7759 34.4909 24.552 34.4625 24.3294L32.1376 24.6258ZM32.1613 24.9998C32.1613 25.1248 32.1534 25.2497 32.1376 25.3739L34.4625 25.6702C34.4909 25.4477 34.5051 25.2238 34.5051 24.9998L32.1613 24.9998ZM31.6665 26.1717H33.3332V23.828H31.6665V26.1717Z" fill="#FAFAFA"/>
</svg>
