<svg width="29" height="23" viewBox="0 0 29 23" fill="none" xmlns="http://www.w3.org/2000/svg">
<g clip-path="url(#clip0_74_1106)">
<path d="M5.27246 22.4298V20.9378C5.27246 20.3658 4.92426 19.9929 4.32741 19.9929C4.02904 19.9929 3.70575 20.0923 3.48192 20.4156C3.30793 20.1421 3.05929 19.9929 2.68628 19.9929C2.43752 19.9929 2.189 20.0674 1.98997 20.341V20.0426H1.46777V22.4298H1.98997V21.1118C1.98997 20.6892 2.2138 20.4901 2.56201 20.4901C2.90999 20.4901 3.08421 20.714 3.08421 21.1118V22.4298H3.60641V21.1118C3.60641 20.6892 3.85494 20.4901 4.17822 20.4901C4.52643 20.4901 4.70042 20.714 4.70042 21.1118V22.4298H5.27246ZM13.0059 20.0426H12.1605V19.3215H11.6383V20.0426H11.1658V20.515H11.6382V21.6092C11.6382 22.1563 11.862 22.4795 12.4589 22.4795C12.6827 22.4795 12.9312 22.405 13.1054 22.3055L12.9562 21.8578C12.807 21.9573 12.633 21.9822 12.5086 21.9822C12.26 21.9822 12.1605 21.833 12.1605 21.5843V20.515H13.0059V20.0426ZM17.4322 19.9928C17.1339 19.9928 16.9349 20.1421 16.8106 20.341V20.0426H16.2884V22.4298H16.8106V21.087C16.8106 20.6892 16.9846 20.4653 17.3078 20.4653C17.4073 20.4653 17.5317 20.4903 17.6311 20.5151L17.7803 20.0178C17.6809 19.9929 17.5317 19.9929 17.4322 19.9929V19.9928ZM10.7431 20.2415C10.4943 20.0674 10.1462 19.9929 9.77323 19.9929C9.1765 19.9929 8.77867 20.2912 8.77867 20.7637C8.77867 21.1616 9.07704 21.3854 9.59924 21.46L9.84788 21.4849C10.1214 21.5345 10.2706 21.6092 10.2706 21.7336C10.2706 21.9076 10.0717 22.0319 9.7235 22.0319C9.37541 22.0319 9.10185 21.9076 8.92774 21.7833L8.6791 22.1811C8.95266 22.38 9.32568 22.4795 9.69858 22.4795C10.3949 22.4795 10.7928 22.1563 10.7928 21.7087C10.7928 21.2859 10.4695 21.0621 9.97214 20.9875L9.7235 20.9626C9.49967 20.9377 9.32568 20.8881 9.32568 20.7389C9.32568 20.5648 9.49967 20.4653 9.77323 20.4653C10.0717 20.4653 10.3701 20.5896 10.5193 20.6643L10.7431 20.2415ZM24.6187 19.9929C24.3203 19.9929 24.1214 20.1421 23.997 20.341V20.0426H23.4748V22.4298H23.997V21.087C23.997 20.6892 24.1711 20.4653 24.4943 20.4653C24.5938 20.4653 24.7182 20.4903 24.8177 20.5151L24.9668 20.0178C24.8674 19.9929 24.7182 19.9929 24.6187 19.9929ZM17.9544 21.2362C17.9544 21.9573 18.4517 22.4795 19.2227 22.4795C19.5707 22.4795 19.8194 22.405 20.068 22.206L19.8194 21.7833C19.6205 21.9325 19.4216 22.007 19.1977 22.007C18.775 22.007 18.4766 21.7087 18.4766 21.2362C18.4766 20.7886 18.775 20.4901 19.1977 20.4653C19.4216 20.4653 19.6205 20.5399 19.8194 20.6892L20.068 20.2664C19.8194 20.0674 19.5707 19.9929 19.2227 19.9929C18.4517 19.9929 17.9544 20.5151 17.9544 21.2362ZM22.7786 21.2362V20.0426H22.2564V20.341C22.0823 20.1172 21.8337 19.9929 21.5104 19.9929C20.839 19.9929 20.3168 20.5151 20.3168 21.2362C20.3168 21.9573 20.839 22.4795 21.5104 22.4795C21.8585 22.4795 22.1072 22.3552 22.2564 22.1314V22.4298H22.7786V21.2362ZM20.8638 21.2362C20.8638 20.8134 21.1373 20.4653 21.5849 20.4653C22.0076 20.4653 22.3061 20.7886 22.3061 21.2362C22.3061 21.6589 22.0076 22.007 21.5849 22.007C21.1373 21.9821 20.8638 21.6589 20.8638 21.2362ZM14.6223 19.9929C13.926 19.9929 13.4286 20.4901 13.4286 21.2362C13.4286 21.9822 13.9259 22.4795 14.6471 22.4795C14.9952 22.4795 15.3434 22.38 15.617 22.1563L15.3682 21.7833C15.1693 21.9325 14.9207 22.0319 14.672 22.0319C14.3488 22.0319 14.0255 21.8828 13.9508 21.4599H15.7164V21.2611C15.7414 20.4901 15.2938 19.9929 14.6223 19.9929ZM14.6223 20.4404C14.9455 20.4404 15.1694 20.6394 15.2191 21.0125H13.9757C14.0255 20.6892 14.2493 20.4404 14.6223 20.4404ZM27.5778 21.2362V19.0977H27.0556V20.341C26.8815 20.1172 26.6329 19.9929 26.3096 19.9929C25.6382 19.9929 25.116 20.5151 25.116 21.2362C25.116 21.9573 25.6382 22.4795 26.3096 22.4795C26.6578 22.4795 26.9065 22.3552 27.0556 22.1314V22.4298H27.5778V21.2362ZM25.6631 21.2362C25.6631 20.8134 25.9366 20.4653 26.3843 20.4653C26.807 20.4653 27.1054 20.7886 27.1054 21.2362C27.1054 21.6589 26.807 22.007 26.3843 22.007C25.9366 21.9821 25.6631 21.6589 25.6631 21.2362ZM8.20663 21.2362V20.0426H7.68443V20.341C7.51033 20.1172 7.26169 19.9929 6.9384 19.9929C6.26702 19.9929 5.74482 20.5151 5.74482 21.2362C5.74482 21.9573 6.26702 22.4795 6.9384 22.4795C7.28661 22.4795 7.53525 22.3552 7.68443 22.1314V22.4298H8.20663V21.2362ZM6.26702 21.2362C6.26702 20.8134 6.54058 20.4653 6.98813 20.4653C7.41087 20.4653 7.70935 20.7886 7.70935 21.2362C7.70935 21.6589 7.41087 22.007 6.98813 22.007C6.54058 21.9821 6.26702 21.6589 6.26702 21.2362Z" fill="black"/>
<path d="M10.5693 1.91504H18.4023V15.9896H10.5693V1.91504Z" fill="#FF5F00"/>
<path d="M11.0667 8.95203C11.0667 6.0924 12.4095 3.55594 14.4734 1.91469C12.9566 0.72111 11.0419 0 8.95312 0C4.00446 0 0.000976562 4.00349 0.000976562 8.95203C0.000976562 13.9005 4.00446 17.9041 8.95301 17.9041C11.0418 17.9041 12.9565 17.183 14.4734 15.9893C12.4095 14.3729 11.0667 11.8117 11.0667 8.95203Z" fill="#EB001B"/>
<path d="M28.9704 8.95203C28.9704 13.9005 24.9669 17.9041 20.0184 17.9041C17.9296 17.9041 16.0149 17.183 14.498 15.9893C16.5868 14.3481 17.9048 11.8117 17.9048 8.95203C17.9048 6.0924 16.5619 3.55594 14.498 1.91469C16.0148 0.72111 17.9296 0 20.0184 0C24.9669 0 28.9704 4.02841 28.9704 8.95203Z" fill="#F79E1B"/>
</g>
<defs>
<clipPath id="clip0_74_1106">
<rect width="29" height="22.5418" fill="white"/>
</clipPath>
</defs>
</svg>
