<svg width="18" height="18" viewBox="0 0 18 18" fill="none" xmlns="http://www.w3.org/2000/svg">
<path d="M16.5 10.5002L14.2958 8.91309C13.1504 8.0884 11.585 8.17364 10.536 9.11781L7.46409 11.8825C6.41501 12.8267 4.84967 12.9119 3.70428 12.0872L1.50002 10.5002M4.50002 16.5002H13.5C15.1569 16.5002 16.5 15.157 16.5 13.5002V4.50015C16.5 2.84329 15.1569 1.50014 13.5 1.50014H4.50002C2.84317 1.50014 1.50002 2.84329 1.50002 4.50015V13.5002C1.50002 15.157 2.84317 16.5002 4.50002 16.5002ZM8.25003 6.37515C8.25003 7.41068 7.41056 8.25015 6.37502 8.25015C5.33949 8.25015 4.50002 7.41068 4.50002 6.37515C4.50002 5.33961 5.33949 4.50015 6.37502 4.50015C7.41056 4.50015 8.25003 5.33961 8.25003 6.37515Z" stroke="#7D45F5" stroke-width="1.11171" stroke-linecap="round"/>
</svg>
