<svg width="17" height="16" viewBox="0 0 17 16" fill="none" xmlns="http://www.w3.org/2000/svg">
<path d="M6.90085 1.04079C7.35174 -0.346902 9.31495 -0.346902 9.76584 1.04079L10.7005 3.9174C10.9021 4.53799 11.4805 4.95816 12.133 4.95816H15.1576C16.6167 4.95816 17.2234 6.82528 16.043 7.68292L13.596 9.46076C13.0681 9.84431 12.8472 10.5242 13.0488 11.1448L13.9835 14.0214C14.4344 15.4091 12.8461 16.563 11.6657 15.7054L9.21867 13.9275C8.69077 13.544 7.97592 13.544 7.44802 13.9275L5.00103 15.7054C3.82059 16.563 2.23232 15.4091 2.68321 14.0214L3.61787 11.1448C3.81952 10.5242 3.59862 9.84431 3.07071 9.46076L0.623721 7.68292C-0.556717 6.82528 0.0499473 4.95816 1.50905 4.95816H4.53369C5.18623 4.95816 5.76454 4.53799 5.96619 3.9174L6.90085 1.04079Z" fill="#FFE600"/>
</svg>
