<svg width="17" height="16" viewBox="0 0 17 16" fill="none" xmlns="http://www.w3.org/2000/svg">
<path d="M6.90091 1.04079C7.3518 -0.346902 9.31501 -0.346902 9.7659 1.04079L10.7006 3.9174C10.9022 4.53799 11.4805 4.95816 12.1331 4.95816H15.1577C16.6168 4.95816 17.2235 6.82528 16.043 7.68292L13.596 9.46076C13.0681 9.84431 12.8472 10.5242 13.0489 11.1448L13.9835 14.0214C14.4344 15.4091 12.8462 16.563 11.6657 15.7054L9.21873 13.9275C8.69082 13.544 7.97598 13.544 7.44807 13.9275L5.00109 15.7054C3.82065 16.563 2.23238 15.4091 2.68327 14.0214L3.61793 11.1448C3.81957 10.5242 3.59868 9.84431 3.07077 9.46076L0.62378 7.68292C-0.556659 6.82528 0.0500055 4.95816 1.50911 4.95816H4.53375C5.18628 4.95816 5.7646 4.53799 5.96624 3.9174L6.90091 1.04079Z" fill="#FFA800"/>
</svg>
