<svg width="20" height="20" viewBox="0 0 20 20" fill="none" xmlns="http://www.w3.org/2000/svg">
<g opacity="0.5" clip-path="url(#clip0_228_2980)">
<path d="M7.19373 2.49437L6.69546 1.93381V1.93381L7.19373 2.49437ZM12.8064 2.49437L13.3047 1.93381L12.8064 2.49437ZM12.6266 2.33455L12.1284 2.89511L12.6266 2.33455ZM7.37352 2.33455L7.8718 2.89511V2.89511L7.37352 2.33455ZM3.38431 17.5374L3.82515 16.9306L3.38431 17.5374ZM2.46251 16.6156L3.06927 16.1748L2.46251 16.6156ZM17.5377 16.6156L16.9309 16.1748L17.5377 16.6156ZM16.6159 17.5374L16.175 16.9306L16.6159 17.5374ZM17.5834 6.65394V10.8332H19.0834V6.65394H17.5834ZM10.8334 17.5832H9.16675V19.0832H10.8334V17.5832ZM2.41675 10.8332V6.65395H0.916748V10.8332H2.41675ZM12.1284 2.89511L12.3082 3.05493L13.3047 1.93381L13.1249 1.774L12.1284 2.89511ZM7.692 3.05493L7.8718 2.89511L6.87525 1.774L6.69546 1.93381L7.692 3.05493ZM4.98752 4.08317C5.98452 4.08317 6.94684 3.71729 7.692 3.05493L6.69546 1.93381C6.22487 2.35211 5.61714 2.58317 4.98752 2.58317V4.08317ZM12.3082 3.05493C13.0533 3.71729 14.0156 4.08317 15.0126 4.08317V2.58317C14.383 2.58317 13.7753 2.35211 13.3047 1.93381L12.3082 3.05493ZM13.1249 1.774C11.3428 0.189918 8.65734 0.189918 6.87525 1.774L7.8718 2.89511C9.08556 1.81621 10.9146 1.81621 12.1284 2.89511L13.1249 1.774ZM9.16675 17.5832C7.58765 17.5832 6.46358 17.5821 5.59525 17.4881C4.74096 17.3955 4.22363 17.2202 3.82515 16.9306L2.94347 18.1442C3.64027 18.6504 4.45176 18.873 5.43368 18.9793C6.40156 19.0842 7.62107 19.0832 9.16675 19.0832V17.5832ZM0.916748 10.8332C0.916748 12.3788 0.915719 13.5984 1.02058 14.5662C1.12697 15.5482 1.3495 16.3596 1.85575 17.0564L3.06927 16.1748C2.77976 15.7763 2.60441 15.259 2.51185 14.4047C2.41778 13.5363 2.41675 12.4123 2.41675 10.8332H0.916748ZM3.82515 16.9306C3.53509 16.7199 3.28001 16.4648 3.06927 16.1748L1.85575 17.0564C2.15901 17.4738 2.52607 17.8409 2.94347 18.1442L3.82515 16.9306ZM17.5834 10.8332C17.5834 12.4123 17.5824 13.5363 17.4883 14.4047C17.3958 15.259 17.2204 15.7763 16.9309 16.1748L18.1444 17.0564C18.6507 16.3596 18.8732 15.5482 18.9796 14.5662C19.0844 13.5984 19.0834 12.3788 19.0834 10.8332H17.5834ZM10.8334 19.0832C12.3791 19.0832 13.5986 19.0842 14.5665 18.9793C15.5484 18.873 16.3599 18.6504 17.0567 18.1442L16.175 16.9306C15.7765 17.2202 15.2592 17.3955 14.4049 17.4881C13.5366 17.5821 12.4125 17.5832 10.8334 17.5832V19.0832ZM16.9309 16.1748C16.7202 16.4648 16.4651 16.7199 16.175 16.9306L17.0567 18.1442C17.4741 17.8409 17.8412 17.4738 18.1444 17.0564L16.9309 16.1748ZM19.0834 6.65394C19.0834 4.40572 17.2609 2.58317 15.0126 2.58317V4.08317C16.4324 4.08317 17.5834 5.23414 17.5834 6.65394H19.0834ZM2.41675 6.65395C2.41675 5.23414 3.56772 4.08317 4.98752 4.08317V2.58317C2.7393 2.58317 0.916748 4.40572 0.916748 6.65395H2.41675ZM5.91675 10.8332C5.91675 13.0883 7.74492 14.9165 10.0001 14.9165V13.4165C8.57335 13.4165 7.41675 12.2599 7.41675 10.8332H5.91675ZM10.0001 14.9165C12.2552 14.9165 14.0834 13.0883 14.0834 10.8332H12.5834C12.5834 12.2599 11.4268 13.4165 10.0001 13.4165V14.9165ZM14.0834 10.8332C14.0834 8.57801 12.2552 6.74984 10.0001 6.74984V8.24984C11.4268 8.24984 12.5834 9.40643 12.5834 10.8332H14.0834ZM10.0001 6.74984C7.74492 6.74984 5.91675 8.57801 5.91675 10.8332H7.41675C7.41675 9.40643 8.57335 8.24984 10.0001 8.24984V6.74984Z" fill="black"/>
<path d="M14.1667 6.66634C14.1667 7.12658 14.5398 7.49967 15.0001 7.49967C15.4603 7.49967 15.8334 7.12658 15.8334 6.66634C15.8334 6.2061 15.4603 5.83301 15.0001 5.83301C14.5398 5.83301 14.1667 6.2061 14.1667 6.66634Z" fill="black"/>
</g>
<defs>
<clipPath id="clip0_228_2980">
<rect width="20" height="20" fill="white"/>
</clipPath>
</defs>
</svg>
