<svg width="24" height="18" viewBox="0 0 24 18" fill="none" xmlns="http://www.w3.org/2000/svg">
<path fill-rule="evenodd" clip-rule="evenodd" d="M23.5385 2.53846C23.5385 1.86554 23.2708 1.21938 22.7954 0.743077C22.3191 0.267692 21.6729 0 21 0C16.8277 0 6.71077 0 2.53846 0C1.86554 0 1.21938 0.267692 0.743077 0.743077C0.267692 1.21938 0 1.86554 0 2.53846V15.4615C0 16.1345 0.267692 16.7806 0.743077 17.2569C1.21938 17.7323 1.86554 18 2.53846 18H21C21.6729 18 22.3191 17.7323 22.7954 17.2569C23.2708 16.7806 23.5385 16.1345 23.5385 15.4615V2.53846ZM22.1538 2.53846V15.4615C22.1538 15.768 22.032 16.0606 21.816 16.2775C21.5991 16.4935 21.3065 16.6154 21 16.6154H2.53846C2.232 16.6154 1.93938 16.4935 1.72246 16.2775C1.50646 16.0606 1.38462 15.768 1.38462 15.4615V2.53846C1.38462 2.232 1.50646 1.93938 1.72246 1.72246C1.93938 1.50646 2.232 1.38462 2.53846 1.38462H21C21.3065 1.38462 21.5991 1.50646 21.816 1.72246C22.032 1.93938 22.1538 2.232 22.1538 2.53846Z" fill="#7D45F5"/>
<path fill-rule="evenodd" clip-rule="evenodd" d="M5.1719 14.2503C5.30483 13.7352 5.57344 13.2608 5.9556 12.8786C6.51775 12.3155 7.28113 11.9998 8.07683 11.9998H9.92298C10.7187 11.9998 11.4821 12.3155 12.0442 12.8786C12.4264 13.2608 12.695 13.7352 12.8279 14.2503C12.923 14.6195 13.3014 14.8429 13.6716 14.7469C14.0408 14.6518 14.2642 14.2734 14.1682 13.9032C13.9744 13.1518 13.5821 12.4577 13.0236 11.8992C12.2011 11.0768 11.0861 10.6152 9.92298 10.6152C9.31467 10.6152 8.68513 10.6152 8.07683 10.6152C6.91375 10.6152 5.79867 11.0768 4.97621 11.8992C4.41775 12.4577 4.02544 13.1518 3.8316 13.9032C3.7356 14.2734 3.95898 14.6518 4.32821 14.7469C4.69837 14.8429 5.07683 14.6195 5.1719 14.2503Z" fill="#7D45F5"/>
<path fill-rule="evenodd" clip-rule="evenodd" d="M9.00009 3.23047C6.57979 3.23047 4.61548 5.19478 4.61548 7.61508C4.61548 10.0354 6.57979 11.9997 9.00009 11.9997C11.4204 11.9997 13.3847 10.0354 13.3847 7.61508C13.3847 5.19478 11.4204 3.23047 9.00009 3.23047ZM9.00009 4.61508C10.6561 4.61508 12.0001 5.95908 12.0001 7.61508C12.0001 9.27108 10.6561 10.6151 9.00009 10.6151C7.34409 10.6151 6.00009 9.27108 6.00009 7.61508C6.00009 5.95908 7.34409 4.61508 9.00009 4.61508Z" fill="#7D45F5"/>
<path fill-rule="evenodd" clip-rule="evenodd" d="M16.3847 5.99985H19.1539C19.5361 5.99985 19.8462 5.6897 19.8462 5.30754C19.8462 4.92539 19.5361 4.61523 19.1539 4.61523H16.3847C16.0025 4.61523 15.6924 4.92539 15.6924 5.30754C15.6924 5.6897 16.0025 5.99985 16.3847 5.99985Z" fill="#7D45F5"/>
<path fill-rule="evenodd" clip-rule="evenodd" d="M16.3847 9.69223H19.1539C19.5361 9.69223 19.8462 9.38208 19.8462 8.99992C19.8462 8.61777 19.5361 8.30762 19.1539 8.30762H16.3847C16.0025 8.30762 15.6924 8.61777 15.6924 8.99992C15.6924 9.38208 16.0025 9.69223 16.3847 9.69223Z" fill="#7D45F5"/>
<path fill-rule="evenodd" clip-rule="evenodd" d="M16.3847 13.3846H18.2308C18.613 13.3846 18.9232 13.0745 18.9232 12.6923C18.9232 12.3102 18.613 12 18.2308 12H16.3847C16.0025 12 15.6924 12.3102 15.6924 12.6923C15.6924 13.0745 16.0025 13.3846 16.3847 13.3846Z" fill="#7D45F5"/>
</svg>
