<svg width="22" height="22" viewBox="0 0 22 22" fill="none" xmlns="http://www.w3.org/2000/svg">
<g clip-path="url(#clip0_1_133)">
<path d="M21.4904 11.2058C21.4904 10.3045 21.4173 9.64674 21.259 8.96466H10.9667V13.0328H17.008C16.8863 14.0438 16.2285 15.5663 14.7669 16.5894L14.7464 16.7256L18.0006 19.2466L18.2261 19.2691C20.2967 17.3568 21.4904 14.5432 21.4904 11.2058Z" fill="#4285F4"/>
<path d="M10.9666 21.9244C13.9264 21.9244 16.4111 20.95 18.2261 19.2691L14.7669 16.5894C13.8412 17.235 12.5988 17.6857 10.9666 17.6857C8.06777 17.6857 5.60738 15.7734 4.73032 13.1303L4.60176 13.1412L1.21796 15.76L1.17371 15.883C2.97636 19.464 6.67916 21.9244 10.9666 21.9244Z" fill="#34A853"/>
<path d="M4.73028 13.1303C4.49886 12.4482 4.36493 11.7174 4.36493 10.9622C4.36493 10.207 4.49886 9.47621 4.7181 8.79413L4.71197 8.64886L1.28577 5.98804L1.17367 6.04136C0.430708 7.52737 0.00439453 9.19609 0.00439453 10.9622C0.00439453 12.7284 0.430708 14.397 1.17367 15.883L4.73028 13.1303Z" fill="#FBBC05"/>
<path d="M10.9666 4.23869C13.0251 4.23869 14.4136 5.12785 15.2053 5.87089L18.2991 2.85018C16.399 1.08405 13.9264 0 10.9666 0C6.67916 0 2.97636 2.46039 1.17371 6.04135L4.71814 8.79412C5.60738 6.15102 8.06777 4.23869 10.9666 4.23869Z" fill="#EB4335"/>
</g>
<defs>
<clipPath id="clip0_1_133">
<rect width="21.505" height="22" fill="white"/>
</clipPath>
</defs>
</svg>
