<svg width="22" height="22" viewBox="0 0 22 22" fill="none" xmlns="http://www.w3.org/2000/svg">
<path d="M11 0C4.92031 0 0 4.91975 0 11C0 17.0796 4.91975 22 11 22C17.0797 22 22 17.0802 22 11C22 4.92031 17.0802 0 11 0ZM11 20.4651C5.78093 20.4651 1.53489 16.2191 1.53489 11C1.53489 5.78089 5.78093 1.53489 11 1.53489C16.2191 1.53489 20.4651 5.78089 20.4651 11C20.4651 16.2191 16.2191 20.4651 11 20.4651Z" fill="#7D45F5"/>
<path d="M10.7672 13.918C10.159 13.918 9.66675 14.4247 9.66675 15.0328C9.66675 15.6265 10.1446 16.1478 10.7672 16.1478C11.3898 16.1478 11.882 15.6265 11.882 15.0328C11.882 14.4247 11.3753 13.918 10.7672 13.918Z" fill="#7D45F5"/>
<path d="M10.8524 5.47852C8.8977 5.47852 8 6.63691 8 7.41877C8 7.98346 8.47781 8.24411 8.86874 8.24411C9.65064 8.24411 9.33212 7.12916 10.809 7.12916C11.5329 7.12916 12.1122 7.44773 12.1122 8.11379C12.1122 8.89565 11.3013 9.3445 10.8235 9.74991C10.4035 10.1118 9.85337 10.7055 9.85337 11.9508C9.85337 12.7037 10.0561 12.9209 10.6497 12.9209C11.3592 12.9209 11.504 12.6023 11.504 12.3272C11.504 11.5743 11.5185 11.1399 12.3148 10.5173C12.7058 10.2132 13.9365 9.22861 13.9365 7.86758C13.9365 6.50654 12.7058 5.47852 10.8524 5.47852Z" fill="#7D45F5"/>
</svg>
