<svg width="20" height="20" viewBox="0 0 20 20" fill="none" xmlns="http://www.w3.org/2000/svg">
<g opacity="0.4">
<path d="M18.1649 14.1561C15.7757 13.7628 14.7057 11.322 14.6616 11.2178L14.6566 11.2086C14.5887 11.0977 14.5459 10.9732 14.5312 10.8439C14.5165 10.7146 14.5303 10.5837 14.5716 10.4603C14.7316 10.082 15.2632 9.91365 15.6141 9.80198C15.7024 9.77448 15.7849 9.74781 15.8499 9.72198C16.4857 9.47198 16.6149 9.21115 16.6116 9.03698C16.5949 8.92871 16.5464 8.82785 16.4722 8.74727C16.3979 8.66668 16.3014 8.61001 16.1949 8.58448L16.1891 8.58281C16.0948 8.54469 15.9941 8.52517 15.8924 8.52531C15.8027 8.52402 15.7138 8.54192 15.6316 8.57781C15.3834 8.70326 15.113 8.77858 14.8357 8.79948C14.6757 8.80323 14.5194 8.75074 14.3941 8.65115L14.4207 8.20948L14.4241 8.15531C14.5846 7.03245 14.5166 5.88873 14.2241 4.79281C13.879 4.00587 13.3097 3.33803 12.5874 2.87267C11.865 2.4073 11.0216 2.16505 10.1624 2.17615L9.8274 2.18031C8.96971 2.16978 8.1279 2.41209 7.40706 2.87699C6.68621 3.34189 6.11825 4.0088 5.77407 4.79448C5.48117 5.88917 5.41258 7.03177 5.5724 8.15365C5.58351 8.31976 5.59351 8.48587 5.6024 8.65198C5.46422 8.76013 5.29075 8.81301 5.11573 8.80031C4.82126 8.78766 4.53301 8.71147 4.27073 8.57698C4.20649 8.54857 4.13679 8.53463 4.06657 8.53615C3.9218 8.53059 3.77891 8.57042 3.65789 8.65005C3.53686 8.72969 3.44375 8.84516 3.39157 8.98031C3.32323 9.33865 3.8349 9.59948 4.14657 9.72198C4.21323 9.74865 4.2949 9.77448 4.3824 9.80198C4.73407 9.91365 5.26573 10.082 5.42573 10.4603C5.46691 10.5837 5.48063 10.7146 5.46595 10.8439C5.45127 10.9731 5.40853 11.0976 5.34073 11.2086L5.33573 11.2178C5.10557 11.7194 4.80566 12.186 4.4449 12.6036C3.78949 13.4185 2.86222 13.9697 1.83323 14.1561C1.78468 14.1643 1.74084 14.19 1.71009 14.2285C1.67934 14.2669 1.66384 14.3153 1.66657 14.3645C1.66845 14.4018 1.67691 14.4385 1.69157 14.4728C1.83907 14.8153 2.57407 15.0978 3.81907 15.2903C3.93573 15.3086 3.98407 15.4986 4.0524 15.8086C4.07907 15.9336 4.1074 16.0628 4.14657 16.1961C4.15958 16.2552 4.19406 16.3074 4.24333 16.3425C4.2926 16.3776 4.35314 16.3931 4.41323 16.3861C4.53223 16.3797 4.65045 16.3629 4.76657 16.3361C5.07326 16.2692 5.386 16.2337 5.6999 16.2303C5.92579 16.2307 6.15127 16.2497 6.37407 16.287C6.84408 16.406 7.28127 16.6293 7.65323 16.9403C8.28107 17.4765 9.07009 17.7874 9.8949 17.8236C9.9224 17.8236 9.95073 17.8228 9.97823 17.8203C10.0116 17.822 10.0574 17.8236 10.1041 17.8236C10.9294 17.7874 11.719 17.4765 12.3474 16.9403C12.7188 16.6294 13.1554 16.4061 13.6249 16.287C13.8474 16.2498 14.0726 16.2308 14.2982 16.2303C14.6119 16.2319 14.9246 16.2651 15.2316 16.3295C15.3481 16.3548 15.4666 16.3695 15.5857 16.3736H15.6057C15.662 16.3781 15.7179 16.362 15.7632 16.3283C15.8084 16.2945 15.8398 16.2455 15.8516 16.1903C15.8879 16.0632 15.9196 15.9348 15.9466 15.8053C16.0141 15.4961 16.0632 15.307 16.1799 15.2886C17.4249 15.097 18.1607 14.8136 18.3057 14.4736C18.3209 14.4394 18.3299 14.4027 18.3324 14.3653C18.3351 14.3162 18.3196 14.2677 18.2889 14.2293C18.2581 14.1909 18.2143 14.1651 18.1657 14.157L18.1649 14.1561Z" fill="black"/>
</g>
</svg>
