<svg width="17" height="16" viewBox="0 0 17 16" fill="none" xmlns="http://www.w3.org/2000/svg">
<path d="M6.90173 1.0394C7.35267 -0.348463 9.31613 -0.348462 9.76707 1.0394L10.7019 3.91637C10.9035 4.53705 11.4819 4.95727 12.1345 4.95727H15.1596C16.6188 4.95727 17.2256 6.82463 16.045 7.68238L13.5977 9.46044C13.0697 9.84404 12.8488 10.524 13.0505 11.1447L13.9853 14.0216C14.4362 15.4095 12.8477 16.5636 11.6671 15.7058L9.21984 13.9278C8.69186 13.5442 7.97693 13.5442 7.44896 13.9278L5.00166 15.7058C3.82107 16.5636 2.2326 15.4095 2.68355 14.0216L3.61833 11.1447C3.82 10.524 3.59907 9.84404 3.0711 9.46044L0.6238 7.68238C-0.556787 6.82463 0.0499536 4.95727 1.50924 4.95727H4.53427C5.18688 4.95727 5.76527 4.53705 5.96694 3.91637L6.90173 1.0394Z" fill="#FFE600"/>
</svg>
