<svg width="10" height="10" viewBox="0 0 10 10" fill="none" xmlns="http://www.w3.org/2000/svg">
<g opacity="0.4" clip-path="url(#clip0_103_859)">
<path d="M6.32806 4.11428C6.4501 3.99224 6.4501 3.79438 6.32806 3.67234C6.20602 3.5503 6.00816 3.5503 5.88612 3.67234L3.5291 6.02936C3.40706 6.1514 3.40706 6.34926 3.5291 6.4713C3.65114 6.59334 3.849 6.59334 3.97104 6.4713L6.32806 4.11428Z" fill="#222222"/>
<path fill-rule="evenodd" clip-rule="evenodd" d="M6.48522 1.14892C6.05881 -0.345213 3.94133 -0.345213 3.51492 1.14892C3.37875 1.62607 2.88854 1.9091 2.40722 1.78845C0.900062 1.41066 -0.158679 3.24446 0.922077 4.3608C1.26721 4.71731 1.26721 5.28336 0.922077 5.63986C-0.158679 6.75621 0.900062 8.59 2.40722 8.21221C2.88854 8.09157 3.37875 8.37459 3.51492 8.85174C3.94133 10.3459 6.05881 10.3459 6.48522 8.85174C6.62139 8.37459 7.1116 8.09157 7.59291 8.21221C9.10007 8.59 10.1588 6.75621 9.07806 5.63986C8.73292 5.28336 8.73292 4.71731 9.07806 4.3608C10.1588 3.24445 9.10007 1.41066 7.59291 1.78845C7.1116 1.9091 6.62139 1.62607 6.48522 1.14892ZM4.11593 1.32044C4.36978 0.430947 5.63036 0.430947 5.88421 1.32044C6.11295 2.12194 6.93639 2.59735 7.74487 2.3947C8.64212 2.16979 9.27242 3.26149 8.62902 3.92608C8.04927 4.52492 8.04927 5.47574 8.62902 6.07459C9.27242 6.73917 8.64212 7.83087 7.74487 7.60597C6.93639 7.40331 6.11295 7.87872 5.88421 8.68022C5.63036 9.56971 4.36978 9.56971 4.11593 8.68022C3.88719 7.87872 3.06375 7.40331 2.25526 7.60597C1.35801 7.83087 0.72772 6.73917 1.37112 6.07459C1.95087 5.47574 1.95087 4.52492 1.37112 3.92608C0.72772 3.26149 1.35801 2.16979 2.25526 2.3947C3.06375 2.59735 3.88719 2.12194 4.11593 1.32044Z" fill="#222222"/>
<path d="M3.33342 3.75035C3.33342 3.98046 3.51996 4.16701 3.75008 4.16701C3.9802 4.16701 4.16675 3.98046 4.16675 3.75035C4.16675 3.52023 3.9802 3.33368 3.75008 3.33368C3.51996 3.33368 3.33342 3.52023 3.33342 3.75035Z" fill="#222222"/>
<path d="M5.83342 6.25035C5.83342 6.48046 6.01996 6.66701 6.25008 6.66701C6.4802 6.66701 6.66675 6.48046 6.66675 6.25035C6.66675 6.02023 6.4802 5.83368 6.25008 5.83368C6.01996 5.83368 5.83342 6.02023 5.83342 6.25035Z" fill="#222222"/>
</g>
<defs>
<clipPath id="clip0_103_859">
<rect width="10" height="10" fill="white"/>
</clipPath>
</defs>
</svg>
