<svg width="13" height="13" viewBox="0 0 13 13" fill="none" xmlns="http://www.w3.org/2000/svg">
<path fill-rule="evenodd" clip-rule="evenodd" d="M6.50022 0.676981C5.07923 0.676981 3.92729 1.82892 3.92729 3.24991V3.38533H2.16687C1.9425 3.38533 1.76062 3.56721 1.76062 3.79158C1.76062 4.01594 1.9425 4.19783 2.16687 4.19783H10.8336C11.0579 4.19783 11.2398 4.01594 11.2398 3.79158C11.2398 3.56721 11.0579 3.38533 10.8336 3.38533H9.07315V3.24991C9.07315 1.82892 7.92121 0.676981 6.50022 0.676981ZM6.50022 1.48948C7.47248 1.48948 8.26065 2.27765 8.26065 3.24991V3.38533H4.7398V3.24991C4.7398 2.27765 5.52797 1.48948 6.50022 1.48948Z" fill="#FAFAFA"/>
<path d="M3.11297 4.83649C3.09175 4.61313 2.89347 4.44926 2.67011 4.47049C2.44675 4.49171 2.28289 4.68998 2.30411 4.91334C2.35528 5.45191 2.44763 6.11551 2.56634 6.9685L2.71884 8.06434C2.86464 9.11233 2.94733 9.70667 3.12622 10.1936C3.45913 11.0997 4.05299 11.8261 4.81674 12.1484C5.23148 12.3234 5.70588 12.3232 6.41211 12.3229H6.58834C7.29457 12.3232 7.76896 12.3234 8.1837 12.1484C8.94745 11.8261 9.54131 11.0997 9.87423 10.1936C10.0531 9.70666 10.1358 9.11232 10.2816 8.06432L10.4341 6.96851C10.5528 6.11551 10.6452 5.45191 10.6963 4.91334C10.7176 4.68998 10.5537 4.49171 10.3303 4.47049C10.107 4.44926 9.9087 4.61313 9.88747 4.83649C9.83817 5.35539 9.74833 6.0016 9.62801 6.86615L9.48591 7.88721C9.32854 9.01801 9.25647 9.51895 9.11157 9.91335C8.83213 10.6739 8.36747 11.1889 7.86781 11.3998C7.62395 11.5027 7.32852 11.5104 6.50022 11.5104C5.67192 11.5104 5.37649 11.5027 5.13263 11.3998C4.63298 11.1889 4.16831 10.6739 3.88887 9.91334C3.74397 9.51895 3.6719 9.01801 3.51453 7.88722L3.37243 6.86616C3.25211 6.0016 3.16227 5.35539 3.11297 4.83649Z" fill="#FAFAFA"/>
</svg>
