<svg width="20" height="20" viewBox="0 0 20 20" fill="none" xmlns="http://www.w3.org/2000/svg">
<g clip-path="url(#clip0_228_2982)">
<path d="M18.3334 11.667L15.8842 9.90359C14.6116 8.98727 12.8723 9.08198 11.7067 10.1311L8.29349 13.2029C7.12784 14.252 5.38858 14.3467 4.11592 13.4304L1.66675 11.667M5.00008 18.3337H15.0001C16.841 18.3337 18.3334 16.8413 18.3334 15.0003V5.00033C18.3334 3.15938 16.841 1.66699 15.0001 1.66699H5.00008C3.15913 1.66699 1.66675 3.15938 1.66675 5.00033V15.0003C1.66675 16.8413 3.15913 18.3337 5.00008 18.3337ZM9.16675 7.08366C9.16675 8.23425 8.23401 9.16699 7.08341 9.16699C5.93282 9.16699 5.00008 8.23425 5.00008 7.08366C5.00008 5.93307 5.93282 5.00033 7.08341 5.00033C8.23401 5.00033 9.16675 5.93307 9.16675 7.08366Z" stroke="black" stroke-width="1.5" stroke-linecap="round"/>
</g>
<defs>
<clipPath id="clip0_228_2982">
<rect width="20" height="20" fill="white"/>
</clipPath>
</defs>
</svg>
