<svg width="5" height="5" viewBox="0 0 5 5" fill="none" xmlns="http://www.w3.org/2000/svg">
<g opacity="0.7">
<path d="M2.91667 2.5C2.91667 2.73012 2.73012 2.91667 2.5 2.91667C2.26988 2.91667 2.08333 2.73012 2.08333 2.5C2.08333 2.26988 2.26988 2.08333 2.5 2.08333C2.73012 2.08333 2.91667 2.26988 2.91667 2.5Z" fill="#212427"/>
<path d="M2.91667 0.833333C2.91667 1.06345 2.73012 1.25 2.5 1.25C2.26988 1.25 2.08333 1.06345 2.08333 0.833333C2.08333 0.603215 2.26988 0.416667 2.5 0.416667C2.73012 0.416667 2.91667 0.603215 2.91667 0.833333Z" fill="#212427"/>
<path d="M2.91667 4.16667C2.91667 4.39678 2.73012 4.58333 2.5 4.58333C2.26988 4.58333 2.08333 4.39678 2.08333 4.16667C2.08333 3.93655 2.26988 3.75 2.5 3.75C2.73012 3.75 2.91667 3.93655 2.91667 4.16667Z" fill="#212427"/>
</g>
</svg>
