<svg width="20" height="20" viewBox="0 0 20 20" fill="none" xmlns="http://www.w3.org/2000/svg">
<g opacity="0.6">
<path fill-rule="evenodd" clip-rule="evenodd" d="M9.16667 5.20833C7.90101 5.20833 6.875 6.23435 6.875 7.5C6.875 8.76565 7.90101 9.79167 9.16667 9.79167C10.4323 9.79167 11.4583 8.76565 11.4583 7.5C11.4583 6.23435 10.4323 5.20833 9.16667 5.20833ZM8.125 7.5C8.125 6.9247 8.59137 6.45833 9.16667 6.45833C9.74196 6.45833 10.2083 6.9247 10.2083 7.5C10.2083 8.0753 9.74196 8.54167 9.16667 8.54167C8.59137 8.54167 8.125 8.0753 8.125 7.5Z" fill="black"/>
<path fill-rule="evenodd" clip-rule="evenodd" d="M13.7196 1.97811C12.7678 1.87499 11.5682 1.87499 10.0377 1.875H9.96229C8.43185 1.87499 7.23218 1.87499 6.2804 1.97811C5.30912 2.08334 4.52213 2.30194 3.8502 2.79013C3.44341 3.08568 3.08568 3.44341 2.79013 3.8502C2.30194 4.52213 2.08334 5.30912 1.97811 6.2804C1.87499 7.23218 1.87499 8.43185 1.875 9.96229V10.0377C1.87499 11.5682 1.87499 12.7678 1.97811 13.7196C2.08334 14.6909 2.30194 15.4779 2.79013 16.1498C2.80085 16.1646 2.81166 16.1793 2.82255 16.1939C3.1117 16.5825 3.45817 16.925 3.8502 17.2099C4.52213 17.6981 5.30912 17.9167 6.2804 18.0219C7.23216 18.125 8.4318 18.125 9.96221 18.125H10.0377C11.5681 18.125 12.7678 18.125 13.7196 18.0219C14.6909 17.9167 15.4779 17.6981 16.1498 17.2099C16.5566 16.9143 16.9143 16.5566 17.2099 16.1498C17.9348 15.1521 18.0752 13.8788 18.1124 12.0838C18.125 11.4735 18.125 10.7836 18.125 10.005V9.96227C18.125 8.43187 18.125 7.23216 18.0219 6.2804C17.9167 5.30912 17.6981 4.52213 17.2099 3.8502C16.9143 3.44341 16.5566 3.08567 16.1498 2.79013C15.4779 2.30194 14.6909 2.08334 13.7196 1.97811ZM4.58493 3.8014C5.00826 3.49383 5.55011 3.31454 6.41504 3.22083C7.29166 3.12586 8.42369 3.125 10 3.125C11.5763 3.125 12.7083 3.12586 13.585 3.22083C14.4499 3.31454 14.9917 3.49383 15.4151 3.8014C15.7157 4.01985 15.9802 4.28426 16.1986 4.58493C16.5062 5.00826 16.6855 5.55011 16.7792 6.41504C16.8741 7.29166 16.875 8.42369 16.875 10C16.875 10.2125 16.875 10.4171 16.8747 10.6144C16.7865 10.5396 16.7029 10.4739 16.6207 10.4155C14.5614 8.95342 11.7209 9.34061 10.1281 11.3005C9.99594 11.4631 9.86934 11.6536 9.72592 11.8911L9.62181 11.8703C8.70589 11.687 8.14503 11.5748 7.61847 11.586C6.21141 11.6158 4.88863 12.2628 4.00119 13.3551C3.77584 13.6325 3.58565 13.9572 3.35618 14.3984C3.29881 14.1623 3.25435 13.8943 3.22083 13.585C3.12586 12.7083 3.125 11.5763 3.125 10C3.125 8.42369 3.12586 7.29166 3.22083 6.41504C3.31454 5.55011 3.49383 5.00826 3.8014 4.58493C4.01985 4.28426 4.28426 4.01985 4.58493 3.8014ZM15.897 11.4347C16.1033 11.5812 16.342 11.8107 16.8561 12.3235C16.8084 13.9658 16.6433 14.803 16.1986 15.4151C15.9802 15.7157 15.7157 15.9802 15.4151 16.1986C14.9917 16.5062 14.4499 16.6855 13.585 16.7792C12.7083 16.8741 11.5763 16.875 10 16.875C9.38183 16.875 8.83199 16.8749 8.33908 16.869L10.2713 13.4504C10.3797 13.2587 10.4737 13.0923 10.5577 12.9454C10.824 12.4798 10.9679 12.2492 11.0982 12.0889C12.2754 10.6402 14.375 10.3541 15.897 11.4347ZM6.9559 16.7758C6.94712 16.7913 6.93908 16.8071 6.93177 16.823C6.74989 16.8112 6.57805 16.7968 6.41504 16.7792C5.55011 16.6855 5.00826 16.5062 4.58493 16.1986C4.40062 16.0647 4.22994 15.9135 4.07512 15.7473C4.54327 14.811 4.73681 14.432 4.97137 14.1433C5.6273 13.336 6.60501 12.8578 7.64501 12.8357C7.96574 12.8289 8.32028 12.8873 9.07018 13.0352L6.9559 16.7758Z" fill="black"/>
</g>
</svg>
