<svg width="47" height="44" viewBox="0 0 47 44" fill="none" xmlns="http://www.w3.org/2000/svg">
<path fill-rule="evenodd" clip-rule="evenodd" d="M23.5002 14.8221C17.7654 14.8221 13.1164 19.0837 13.1164 24.3406C13.1164 29.5975 17.7654 33.8591 23.5002 33.8591C29.235 33.8591 33.884 29.5975 33.884 24.3406C33.884 19.0837 29.235 14.8221 23.5002 14.8221ZM16.3955 24.3406C16.3955 20.7438 19.5763 17.828 23.5002 17.828C27.424 17.828 30.6049 20.7438 30.6049 24.3406C30.6049 27.9374 27.424 30.8532 23.5002 30.8532C19.5763 30.8532 16.3955 27.9374 16.3955 24.3406Z" fill="white"/>
<path fill-rule="evenodd" clip-rule="evenodd" d="M31.4796 2.78096C26.9289 -0.926987 20.0714 -0.926987 15.5207 2.78096L15.0491 3.16527C13.7546 4.22004 12.0828 4.80268 10.3509 4.80268C4.63424 4.80268 2.89297e-07 9.05073 2.89297e-07 14.291V24.4313C-1.75617e-05 28.1115 -3.17605e-05 30.9963 0.270478 33.285C0.546529 35.6206 1.11997 37.5131 2.40063 39.1288C3.17593 40.107 4.11437 40.9673 5.18148 41.678C6.94415 42.8519 9.00863 43.3775 11.5566 43.6306C14.0533 43.8786 17.2003 43.8785 21.215 43.8785H25.7852C29.7999 43.8785 32.947 43.8786 35.4438 43.6306C37.9917 43.3775 40.0562 42.8519 41.8189 41.678C42.886 40.9673 43.8244 40.107 44.5997 39.1288C45.8804 37.5131 46.4538 35.6206 46.7299 33.285C47.0004 30.9963 47.0003 28.1116 47.0003 24.4315V14.291C47.0003 9.05073 42.3661 4.80268 36.6495 4.80268C34.9175 4.80268 33.2457 4.22004 31.9513 3.16527L31.4796 2.78096ZM17.6992 5.02755C21.0075 2.33193 25.9928 2.33193 29.3011 5.02755L29.7727 5.41186C31.6675 6.95572 34.1144 7.80851 36.6495 7.80851C40.5551 7.80851 43.7212 10.7108 43.7212 14.291V24.3406C43.7212 28.1311 43.719 30.8533 43.4698 32.9612C43.224 35.0411 42.7537 36.3441 41.9469 37.3621C41.3738 38.0851 40.6802 38.7209 39.8914 39.2462C38.7809 39.9858 37.3595 40.4169 35.0906 40.6423C32.7909 40.8706 29.8213 40.8727 25.6862 40.8727H21.3141C17.179 40.8727 14.2094 40.8706 11.9098 40.6423C9.64083 40.4169 8.21941 39.9858 7.10888 39.2462C6.32015 38.7209 5.62652 38.0851 5.05347 37.3621C4.24663 36.3441 3.77632 35.0411 3.53049 32.9612C3.28134 30.8533 3.27909 28.1311 3.27909 24.3406V14.291C3.27909 10.7108 6.44523 7.80851 10.3509 7.80851C12.8859 7.80851 15.3329 6.95572 17.2276 5.41186L17.6992 5.02755Z" fill="white"/>
<path d="M34.4305 14.3213C34.4305 15.428 35.4092 16.3251 36.6165 16.3251C37.8239 16.3251 38.8026 15.428 38.8026 14.3213C38.8026 13.2145 37.8239 12.3174 36.6165 12.3174C35.4092 12.3174 34.4305 13.2145 34.4305 14.3213Z" fill="white"/>
</svg>
