<svg width="22" height="22" viewBox="0 0 22 22" fill="none" xmlns="http://www.w3.org/2000/svg">
<rect x="2.75" y="2.75" width="16.5" height="16.5" fill="white"/>
<mask id="mask0_307_1377" style="mask-type:luminance" maskUnits="userSpaceOnUse" x="2" y="2" width="18" height="18">
<path d="M17.875 2.75H4.125C3.36561 2.75 2.75 3.36561 2.75 4.125V17.875C2.75 18.6344 3.36561 19.25 4.125 19.25H17.875C18.6344 19.25 19.25 18.6344 19.25 17.875V4.125C19.25 3.36561 18.6344 2.75 17.875 2.75Z" fill="white" stroke="white" stroke-width="1.41176" stroke-linecap="round" stroke-linejoin="round"/>
<path d="M10.9998 10.0841C11.486 10.0841 11.9523 9.89099 12.2962 9.54718C12.64 9.20336 12.8331 8.73704 12.8331 8.25081C12.8331 7.76458 12.64 7.29827 12.2962 6.95445C11.9523 6.61063 11.486 6.41748 10.9998 6.41748C10.5136 6.41748 10.0473 6.61063 9.70343 6.95445C9.35962 7.29827 9.16646 7.76458 9.16646 8.25081C9.16646 8.73704 9.35962 9.20336 9.70343 9.54718C10.0473 9.89099 10.5136 10.0841 10.9998 10.0841ZM10.9998 15.1258C11.6076 15.1258 12.1905 14.8844 12.6202 14.4546C13.05 14.0248 13.2915 13.4419 13.2915 12.8341C13.2915 12.2264 13.05 11.6435 12.6202 11.2137C12.1905 10.7839 11.6076 10.5425 10.9998 10.5425C10.392 10.5425 9.80911 10.7839 9.37934 11.2137C8.94957 11.6435 8.70813 12.2264 8.70813 12.8341C8.70813 13.4419 8.94957 14.0248 9.37934 14.4546C9.80911 14.8844 10.392 15.1258 10.9998 15.1258Z" stroke="black" stroke-width="1.41176"/>
</mask>
<g mask="url(#mask0_307_1377)">
<path d="M0 4.23529C0 1.89621 1.89621 0 4.23529 0H17.7647C20.1038 0 22 1.89621 22 4.23529V17.7647C22 20.1038 20.1038 22 17.7647 22H4.23529C1.89621 22 0 20.1038 0 17.7647V4.23529Z" fill="#DF5CFF"/>
</g>
</svg>
